{"title":"Slave Girls from Beyond Infinity 1987 DVDRip avi &amp; mp4","uid":12055528,"size":988385616,"categoryP":"video","categoryS":"movies","magnet":"?xt=urn:btih:91c5aadc9f10502c8503388ca94fe5e953c04102&amp;dn=Slave+Girls+from+Beyond+Infinity+1987+DVDRip+avi+%26amp%3B+mp4&amp;tr=udp%3A%2F%2Ftracker.openbittorrent.com%3A80&amp;tr=udp%3A%2F%2Fopen.demonii.com%3A1337&amp;tr=udp%3A%2F%2Ftracker.coppersurfer.tk%3A6969&amp;tr=udp%3A%2F%2Fexodus.desync.com%3A6969","seeders":0,"leechers":0,"uploader":"shoshiny","files":10,"time":1435114038,"description":"Lovely and resourceful Daria and Tisa escape a space gulag only to crash land on a nearby world where a guy in tight pants named Zed is playing The Most Dangerous Game. Zed turns the girls and another guest loose in his jungle preserve to serve as the prey in a mad hunt. Armed only with knives and their wits, the girls must battle their way accross the jungle to a hidden arms cache before Zed catches and kills them.\n\nBased on this torrent: https://thepiratebay.org/torrent/5635302/Slave.Girls.From.Beyond.Infinity.1987.DVDRip.DivX\nConsists of unrared .avi and unrared, index rebuilded, converted into .mp4 (for iPhone/iPad)\n\nIMDb Rating: 4.4/10 from 744 users\nMovie Information: http://www.imdb.com/title/tt0093991/\nRuntime: 74 Minutes\nLanguage: English\nScreencaps album: http://imgur.com/a/9f4J1\n\n\nInfo for AVI:\n\nGeneral\nSource: .avi DVDRip \nOriginal Format: NTSC\nComplete name                            : Slave Girls From Beyond Infinity [Ken Dixon, 1987] DVDRip.avi\nFormat                                   : AVI\nFormat/Info                              : Audio Video Interleave\nFile size                                : 651 MiB\nDuration                                 : 1h 14mn\nOverall bit rate mode                    : Variable\nOverall bit rate                         : 1 226 Kbps\nWriting application                      : Nandub v1.0rc2\nWriting library                          : Nandub build 1852/release\n\nVideo\nID                                       : 0\nFormat                                   : MPEG-4 Visual\nFormat settings, BVOP                    : Yes\nFormat settings, QPel                    : No\nFormat settings, GMC                     : No warppoints\nFormat settings, Matrix                  : Default (H.263)\nCodec ID                                 : DIVX\nCodec ID/Info                            : Project Mayo\nCodec ID/Hint                            : DivX 4\nDuration                                 : 1h 14mn\nSource duration                          : 1h 13mn\nBit rate                                 : 1 102 Kbps\nWidth                                    : 576 pixels\nHeight                                   : 432 pixels\nDisplay aspect ratio                     : 4:3\nFrame rate                               : 23.976 fps\nColor space                              : YUV\nChroma subsampling                       : 4:2:0                                \nBit depth                                : 8 bits                               \nScan type                                : Progressive                          \nCompression mode                         : Lossy                                \nBits/(Pixel*Frame)                       : 0.185                                \nStream size                              : 583 MiB (89%)\n\nAudio\nID                                       : 1\nFormat                                   : MPEG Audio\nFormat version                           : Version 1\nFormat profile                           : Layer 3\nMode                                     : Joint stereo\nMode extension                           : MS Stereo\nCodec ID                                 : 55\nCodec ID/Hint                            : MP3\nDuration                                 : 1h 14mn\nSource duration                          : 1h 13mn\nBit rate mode                            : Variable\nBit rate                                 : 115 Kbps\nChannel(s)                               : 2 channels\nSampling rate                            : 48.0 KHz\nCompression mode                         : Lossy\nStream size                              : 60.6 MiB (9%)\nAlignment                                : Aligned on interleaves\nInterleave, duration                     : 24 ms (0.58 video frame)\nInterleave, preload duration             : 482 ms\nWriting library                          : LAME3.89 (beta)\n\n\nInfo for MP4:\n\nGeneral\nSource: .avi DVDRip \nComplete name                            : Slave Girls From Beyond Infinity [Ken Dixon, 1987] DVDRip.mp4\nFormat                                   : MPEG-4\nFormat profile                           : Base Media\nCodec ID                                 : isom\nFile size                                : 290 MiB\nDuration                                 : 1h 14mn\nOverall bit rate                         : 545 Kbps\n\nVideo\nID                                       : 2\nFormat                                   : AVC\nFormat/Info                              : Advanced Video Codec\nFormat profile                           : &lt;a class=&quot;__cf_email__&quot; href=&quot;/cdn-cgi/l/email-protection&quot; data-cfemail=&quot;99d1f0fef1d9d5aab7a9&quot;&gt;[email&amp;#160;protected]&lt;/a&gt;&lt;script data-cfhash='f9e31' type=&quot;text/javascript&quot;&gt;\n/* &lt;![CDATA[ */!function(){try{var t=&quot;currentScript&quot;in document?document.currentScript:function(){for(var t=document.getElementsByTagName(&quot;script&quot;),e=t.length;e--;)if(t[e].getAttribute(&quot;data-cfhash&quot;))return t[e]}();if(t&amp;&amp;t.previousSibling){var e,r,n,i,c=t.previousSibling,a=c.getAttribute(&quot;data-cfemail&quot;);if(a){for(e=&quot;&quot;,r=parseInt(a.substr(0,2),16),n=2;a.length-n;n+=2)i=parseInt(a.substr(n,2),16)^r,e+=String.fromCharCode(i);e=document.createTextNode(e),c.parentNode.replaceChild(e,c)}t.parentNode.removeChild(t);}}catch(u){}}()/* ]]&gt; */&lt;/script&gt;\nFormat settings, CABAC                   : Yes\nFormat settings, ReFrames                : 4 frames\nCodec ID                                 : avc1\nCodec ID/Info                            : Advanced Video Coding\nDuration                                 : 1h 14mn\nBit rate                                 : 410 Kbps\nWidth                                    : 576 pixels\nHeight                                   : 448 pixels\nOriginal height                          : 432 pixels\nDisplay aspect ratio                     : 4:3\nFrame rate mode                          : Constant\nFrame rate                               : 23.976 fps\nColor space                              : YUV\nChroma subsampling                       : 4:2:0\nBit depth                                : 8 bits\nScan type                                : Progressive\nBits/(Pixel*Frame)                       : 0.066\nStream size                              : 218 MiB (75%)\nLanguage                                 : English                         \n                                                                                \nAudio                                                                           \nID                                       : 1                                    \nFormat                                   : MPEG Audio\nFormat version                           : Version 1\nFormat profile                           : Layer 2\nCodec ID                                 : 6B\nDuration                                 : 1h 14mn\nSource duration                          : 1h 14mn\nBit rate mode                            : Constant\nBit rate                                 : 128 Kbps\nChannel(s)                               : 2 channels\nSampling rate                            : 44.1 KHz\nCompression mode                         : Lossy\nStream size                              : 67.8 MiB (23%)\nSource stream size                       : 67.8 MiB (23%)\nLanguage                                 : English","torrent":{"xt":"urn:btih:91c5aadc9f10502c8503388ca94fe5e953c04102","amp;dn":"Slave+Girls+from+Beyond+Infinity+1987+DVDRip+avi+%26amp%3B+mp4","amp;tr":["udp%3A%2F%2Ftracker.openbittorrent.com%3A80","udp%3A%2F%2Fopen.demonii.com%3A1337","udp%3A%2F%2Ftracker.coppersurfer.tk%3A6969","udp%3A%2F%2Fexodus.desync.com%3A6969"],"infoHash":"91c5aadc9f10502c8503388ca94fe5e953c04102","infoHashBuffer":{"type":"Buffer","data":[145,197,170,220,159,16,80,44,133,3,56,140,169,79,229,233,83,192,65,2]},"announce":[],"urlList":[]}}